HIERARCHY
ROOT root
{
	OFFSET	0.000000	0.000000	0.000000
	CHANNELS 6 Xposition Yposition Zposition Zrotation Yrotation Xrotation
	JOINT lhipjoint
	{
		OFFSET	0.000000	0.000000	0.000000
		CHANNELS 3 Zrotation Yrotation Xrotation
		JOINT lfemur
		{
			OFFSET	1.645494	-1.708786	0.845660
			CHANNELS 3 Zrotation Yrotation Xrotation
			JOINT ltibia
			{
				OFFSET	2.249633	-6.180820	0.000000
				CHANNELS 3 Zrotation Yrotation Xrotation
				JOINT lfoot
				{
					OFFSET	2.717752	-7.466968	0.000000
					CHANNELS 3 Zrotation Yrotation Xrotation
					JOINT ltoes
					{
						OFFSET	0.187679	-0.515643	2.247368
						CHANNELS 3 Zrotation Yrotation Xrotation
						End Site
						{
							OFFSET	0.000000	-0.000000	1.159350
						}
					}
				}
			}
		}
	}
	JOINT rhipjoint
	{
		OFFSET	0.000000	0.000000	0.000000
		CHANNELS 3 Zrotation Yrotation Xrotation
		JOINT rfemur
		{
			OFFSET	-1.588298	-1.708789	0.845662
			CHANNELS 3 Zrotation Yrotation Xrotation
			JOINT rtibia
			{
				OFFSET	-2.250064	-6.182003	0.000000
				CHANNELS 3 Zrotation Yrotation Xrotation
				JOINT rfoot
				{
					OFFSET	-2.728293	-7.495929	0.000000
					CHANNELS 3 Zrotation Yrotation Xrotation
					JOINT rtoes
					{
						OFFSET	-0.215414	-0.591846	2.106425
						CHANNELS 3 Zrotation Yrotation Xrotation
						End Site
						{
							OFFSET	-0.000000	-0.000000	1.098380
						}
					}
				}
			}
		}
	}
	JOINT lowerback
	{
		OFFSET	0.000000	0.000000	0.000000
		CHANNELS 3 Zrotation Yrotation Xrotation
		JOINT upperback
		{
			OFFSET	0.031419	2.104964	-0.110379
			CHANNELS 3 Zrotation Yrotation Xrotation
			JOINT thorax
			{
				OFFSET	-0.018626	2.108971	-0.069557
				CHANNELS 3 Zrotation Yrotation Xrotation
				JOINT lowerneck
				{
					OFFSET	-0.034945	2.110023	-0.018114
					CHANNELS 3 Zrotation Yrotation Xrotation
					JOINT upperneck
					{
						OFFSET	-0.022675	1.732376	0.004511
						CHANNELS 3 Zrotation Yrotation Xrotation
						JOINT head
						{
							OFFSET	-0.058084	1.547243	-0.617485
							CHANNELS 3 Zrotation Yrotation Xrotation
							End Site
							{
								OFFSET	-0.013955	1.714682	-0.210818
							}
						}
					}
				}
				JOINT lclavicle
				{
					OFFSET	-0.034945	2.110023	-0.018114
					CHANNELS 3 Zrotation Yrotation Xrotation
					JOINT lhumerus
					{
						OFFSET	3.448981	0.502979	0.219205
						CHANNELS 3 Zrotation Yrotation Xrotation
						JOINT lradius
						{
							OFFSET	5.419170	-0.000000	-0.000000
							CHANNELS 3 Zrotation Yrotation Xrotation
							JOINT lwrist
							{
								OFFSET	2.443730	-0.000000	0.000000
								CHANNELS 3 Zrotation Yrotation Xrotation
								JOINT lhand
								{
									OFFSET	1.221860	-0.000000	0.000000
									CHANNELS 3 Zrotation Yrotation Xrotation
									JOINT lfingers
									{
										OFFSET	0.727502	-0.000000	0.000000
										CHANNELS 3 Zrotation Yrotation Xrotation
										End Site
										{
											OFFSET	0.586531	-0.000000	0.000000
										}
									}
								}
								JOINT lthumb
								{
									OFFSET	1.221860	-0.000000	0.000000
									CHANNELS 3 Zrotation Yrotation Xrotation
									End Site
									{
										OFFSET	0.595487	-0.000000	0.595487
									}
								}
							}
						}
					}
				}
				JOINT rclavicle
				{
					OFFSET	-0.034945	2.110023	-0.018114
					CHANNELS 3 Zrotation Yrotation Xrotation
					JOINT rhumerus
					{
						OFFSET	-3.230153	0.558301	0.310511
						CHANNELS 3 Zrotation Yrotation Xrotation
						JOINT rradius
						{
							OFFSET	-5.589760	-0.000102	0.000137
							CHANNELS 3 Zrotation Yrotation Xrotation
							JOINT rwrist
							{
								OFFSET	-2.480600	-0.000000	0.000000
								CHANNELS 3 Zrotation Yrotation Xrotation
								JOINT rhand
								{
									OFFSET	-1.240300	-0.000000	0.000000
									CHANNELS 3 Zrotation Yrotation Xrotation
									JOINT rfingers
									{
										OFFSET	-0.816009	-0.000000	0.000000
										CHANNELS 3 Zrotation Yrotation Xrotation
										End Site
										{
											OFFSET	-0.657887	-0.000000	0.000000
										}
									}
								}
								JOINT rthumb
								{
									OFFSET	-1.240300	-0.000000	0.000000
									CHANNELS 3 Zrotation Yrotation Xrotation
									End Site
									{
										OFFSET	-0.667932	-0.000000	0.667932
									}
								}
							}
						}
					}
				}
			}
		}
	}
}
MOTION
Frames:	5
Frame Time:	0.008333
	4.812490	16.352301	-17.507299	-4.424019	-1.333390	30.257500	0.000000	0.000000	0.000000	-36.085995	9.681580	-46.340580	8.730198	16.630932	55.152294	-2.957437	46.346794	22.775612	0.079146	1.814750	4.993973	0.000000	0.000000	0.000000	29.248058	14.993095	-55.351662	-3.573554	-11.570210	34.228004	-0.036232	-14.599348	-21.122284	-0.128318	-2.309063	6.360593	1.573800	-0.157386	11.102801	12.042600	1.772270	-8.372752	12.935101	1.717460	-16.415199	1.892590	2.898021	-13.568199	-4.753290	3.820610	1.672800	-1.643960	1.715860	3.093360	1.892590	0.000000	0.000000	-141.711044	-62.614491	73.451653	7.539352	-12.803430	-0.847108	-0.000001	-0.000003	44.962696	-11.724434	27.256073	-5.429335	-7.125019	0.000000	0.000000	-42.053825	52.178135	-8.697580	1.892590	0.000000	0.000000	90.634827	68.001312	-124.067207	-5.509571	9.441759	-0.455339	0.000000	0.000000	146.959015	-8.704432	20.765797	-3.107061	7.125019	0.000000	0.000000	12.641230	-9.392762	10.678968
	4.795750	16.330999	-17.506701	-4.558960	-1.366700	30.144100	0.000000	0.000000	0.000000	-35.889240	9.412234	-46.624249	8.945323	16.772404	55.900845	-5.285104	47.225460	14.494006	0.491237	4.493891	12.470465	0.000000	0.000000	0.000000	29.274113	15.353425	-55.271748	-3.652394	-11.682892	34.619202	-0.078105	-14.641381	-21.615219	-0.132566	-2.346812	6.465133	1.441140	-0.237785	10.980999	12.004702	1.620900	-8.414122	13.000999	1.655460	-16.353498	1.985190	2.897530	-12.398900	-4.624780	3.798090	1.348290	-1.626400	1.729930	2.758100	1.985190	0.000000	0.000000	-142.807037	-60.501324	76.042305	7.503021	-12.744101	-0.839079	0.000000	0.000000	44.207401	-13.303041	27.955084	-6.324907	-7.125019	0.000000	0.000000	-43.962570	52.436516	-9.551251	1.985190	0.000000	0.000000	96.955856	66.340286	-120.851036	-5.521495	9.461756	-0.457297	0.000001	-0.000002	144.771988	-10.758324	21.345989	-3.956397	7.125019	0.000000	0.000000	11.349652	-8.626884	9.716540
	4.776550	16.306101	-17.502399	-4.584980	-1.553600	30.004803	0.000000	0.000000	0.000000	-35.915936	9.227531	-46.936535	9.182900	16.923985	56.720520	-6.756721	46.351238	6.029501	1.330211	7.303587	20.617945	0.000000	0.000000	0.000000	29.137129	15.790271	-55.153564	-3.722112	-11.781144	34.962086	-0.092723	-14.859709	-22.055805	-0.151667	-2.509498	6.915977	1.132650	-0.303111	10.872897	11.901901	1.441420	-8.381891	13.086401	1.586630	-16.200401	2.237400	2.907930	-11.836598	-4.544869	3.783670	1.489280	-1.650340	1.734010	2.705130	2.237400	0.000000	0.000000	-141.068069	-59.147076	89.623199	8.448923	-14.277903	-1.060096	-0.000001	-0.000003	29.585384	-11.460499	30.268875	-5.834805	-7.125019	0.000000	0.000000	-44.364079	54.532104	-12.186906	2.237400	0.000000	0.000000	103.260284	63.378563	-103.971443	-4.205852	7.239445	-0.266182	0.000000	-0.000001	128.628998	-11.268150	19.989836	-3.896480	7.125019	0.000000	0.000000	11.006271	-9.922159	9.119552
	4.754930	16.275400	-17.487000	-4.521560	-1.821070	29.739395	0.000000	0.000000	0.000000	-36.088501	9.205989	-47.181259	9.438764	17.081926	57.595490	-7.014935	46.359177	4.655945	1.525571	7.798750	22.104477	0.000000	0.000000	0.000000	28.967335	16.158642	-54.895367	-3.795287	-11.882893	35.318958	-0.043381	-15.362227	-22.243225	-0.111502	-2.152961	5.928571	0.691842	-0.159344	10.840000	11.693100	1.512750	-8.231291	13.043700	1.635540	-16.002699	2.596190	2.784320	-12.246899	-4.475399	3.576690	2.073290	-1.704390	1.627430	2.983190	2.596190	0.000000	0.000000	-140.876480	-57.692211	100.681541	9.320397	-15.669584	-1.285284	0.000000	0.000000	19.116598	-7.417747	31.744547	-3.918550	-7.125019	0.000000	0.000000	-42.135059	56.463280	-13.499478	2.596190	0.000000	0.000000	107.551086	61.616524	-89.244270	-3.792684	6.535827	-0.216633	0.000000	-0.000001	112.153992	-10.074844	19.080343	-3.324040	7.125019	0.000000	0.000000	11.767137	-10.933517	9.530097
	4.733050	16.249399	-17.467600	-4.568311	-2.101210	29.368799	0.000000	0.000000	0.000000	-36.196060	9.415074	-47.417156	9.716363	17.247240	58.536114	-7.058119	45.910404	3.400617	1.734372	8.289377	23.596519	0.000000	0.000000	0.000000	29.055817	16.363989	-54.561012	-3.887302	-12.008908	35.763496	0.005225	-15.693691	-22.217077	-0.053815	-1.496996	4.117444	0.274651	-0.200850	10.801600	11.661399	1.366390	-8.212361	13.290599	1.608140	-15.930896	2.165280	2.812800	-10.706301	-3.913620	3.659850	1.768860	-1.445050	1.705740	2.563590	2.165280	-0.000000	-0.000000	-145.924805	-53.543549	78.604118	7.611319	-12.920864	-0.863129	0.000000	0.000000	45.233788	-8.241898	26.938217	-3.754411	-7.125019	0.000000	0.000000	-38.784603	52.539265	-8.197665	2.165280	-0.000000	-0.000000	111.279900	57.106037	-74.817917	-2.568614	4.438575	-0.099560	-0.000000	0.000000	95.593895	-10.696922	18.630619	-3.453376	7.125019	0.000000	0.000000	11.365026	-11.324645	9.097397
